<svg width="22" height="16" viewBox="0 0 22 16" fill="none" xmlns="http://www.w3.org/2000/svg">
<path d="M21.0833 8.89764H0.916667C0.410665 8.89764 0 8.48698 0 7.98098C0 7.47497 0.410665 7.06431 0.916667 7.06431H21.0833C21.5893 7.06431 22 7.47497 22 7.98098C22 8.48698 21.5893 8.89764 21.0833 8.89764Z" fill="#4614E8"/>
<path d="M21.0833 1.86979H0.916667C0.410665 1.86979 0 1.45913 0 0.953124C0 0.447122 0.410665 0.0364571 0.916667 0.0364571H21.0833C21.5893 0.0364571 22 0.447122 22 0.953124C22 1.45913 21.5893 1.86979 21.0833 1.86979Z" fill="#4614E8"/>
<path d="M21.0833 15.9253H0.916667C0.410665 15.9253 0 15.5146 0 15.0086C0 14.5026 0.410665 14.0919 0.916667 14.0919H21.0833C21.5893 14.0919 22 14.5026 22 15.0086C22 15.5146 21.5893 15.9253 21.0833 15.9253Z" fill="#4614E8"/>
</svg>
