<svg width="40" height="40" viewBox="0 0 40 40" fill="none" xmlns="http://www.w3.org/2000/svg">
<circle cx="20" cy="20" r="19" stroke="#404040" stroke-width="2"/>
<path d="M19.354 24.168C17.758 24.168 16.484 23.6033 15.532 22.474L17.016 21.06C17.716 21.844 18.5047 22.236 19.382 22.236C19.7927 22.236 20.124 22.1287 20.376 21.914C20.6373 21.69 20.768 21.3913 20.768 21.018C20.768 20.6167 20.6 20.3087 20.264 20.094C19.928 19.8793 19.4567 19.772 18.85 19.772H17.954L17.618 18.4L19.956 16.048H16.106V14.2H22.728V15.824L20.25 18.19C22.0047 18.4887 22.882 19.4127 22.882 20.962C22.882 21.9047 22.56 22.6747 21.916 23.272C21.2813 23.8693 20.4273 24.168 19.354 24.168Z" fill="#404040"/>
</svg>
