<svg width="44" height="42" viewBox="0 0 44 42" fill="none" xmlns="http://www.w3.org/2000/svg">
<path d="M40 22C40 33.0457 31.0457 42 20 42C8.9543 42 0 33.0457 0 22C0 10.9543 8.9543 2 20 2C31.0457 2 40 10.9543 40 22Z" fill="#F4F7FA"/>
<path fill-rule="evenodd" clip-rule="evenodd" d="M20 41.6C30.8248 41.6 39.6 32.8248 39.6 22C39.6 11.1752 30.8248 2.4 20 2.4C9.17522 2.4 0.4 11.1752 0.4 22C0.4 32.8248 9.17522 41.6 20 41.6ZM20 42C31.0457 42 40 33.0457 40 22C40 10.9543 31.0457 2 20 2C8.9543 2 0 10.9543 0 22C0 33.0457 8.9543 42 20 42Z" fill="black"/>
<path d="M25.3194 24.5551L21.2849 21.5293V15.3655C21.2849 14.7458 20.7839 14.2448 20.1642 14.2448C19.5444 14.2448 19.0435 14.7458 19.0435 15.3655V22.0897C19.0435 22.4427 19.2093 22.7756 19.4917 22.9862L23.9745 26.3483C24.1762 26.4996 24.4116 26.5725 24.6458 26.5725C24.9876 26.5725 25.3238 26.4189 25.5435 26.1231C25.9156 25.6288 25.8148 24.9261 25.3194 24.5551Z" fill="#F4F7FA"/>
<path fill-rule="evenodd" clip-rule="evenodd" d="M25.0794 24.8751L20.8849 21.7293V15.3655C20.8849 14.9667 20.563 14.6448 20.1642 14.6448C19.7653 14.6448 19.4435 14.9667 19.4435 15.3655V22.0897C19.4435 22.3174 19.5505 22.531 19.7309 22.6656L19.7317 22.6662L24.2145 26.0283C24.3446 26.1259 24.4952 26.1725 24.6458 26.1725C24.868 26.1725 25.0822 26.0734 25.2223 25.8846L25.2239 25.8825C25.4626 25.5655 25.3981 25.1138 25.0794 24.8751ZM25.3194 24.5551L21.2849 21.5293V15.3655C21.2849 14.7458 20.7839 14.2448 20.1642 14.2448C19.5444 14.2448 19.0435 14.7458 19.0435 15.3655V22.0897C19.0435 22.4427 19.2093 22.7756 19.4917 22.9862L23.9745 26.3483C24.1762 26.4996 24.4116 26.5725 24.6458 26.5725C24.9876 26.5725 25.3238 26.4189 25.5435 26.1231C25.9156 25.6288 25.8148 24.9261 25.3194 24.5551Z" fill="black"/>
<path d="M20.1643 7.53192C12.1861 7.53192 5.69617 14.0218 5.69617 22C5.69617 29.9782 12.1861 36.4681 20.1643 36.4681C28.1424 36.4681 34.6323 29.9782 34.6323 22C34.6323 14.0218 28.1424 7.53192 20.1643 7.53192ZM20.1643 34.2267C13.4233 34.2267 7.93753 28.7409 7.93753 22C7.93753 15.2591 13.4233 9.77329 20.1643 9.77329C26.9063 9.77329 32.391 15.2591 32.391 22C32.391 28.7409 26.9052 34.2267 20.1643 34.2267Z" fill="#F4F7FA"/>
<path fill-rule="evenodd" clip-rule="evenodd" d="M20.1643 7.93192C12.407 7.93192 6.09617 14.2427 6.09617 22C6.09617 29.7573 12.407 36.0681 20.1643 36.0681C27.9215 36.0681 34.2323 29.7573 34.2323 22C34.2323 14.2427 27.9215 7.93192 20.1643 7.93192ZM20.1643 34.6267C13.2024 34.6267 7.53753 28.9619 7.53753 22C7.53753 15.0382 13.2024 9.37329 20.1643 9.37329C27.1273 9.37329 32.791 15.0382 32.791 22C32.791 28.9619 27.1261 34.6267 20.1643 34.6267ZM5.69617 22C5.69617 14.0218 12.1861 7.53192 20.1643 7.53192C28.1424 7.53192 34.6323 14.0218 34.6323 22C34.6323 29.9782 28.1424 36.4681 20.1643 36.4681C12.1861 36.4681 5.69617 29.9782 5.69617 22ZM7.93753 22C7.93753 28.7409 13.4233 34.2267 20.1643 34.2267C26.9052 34.2267 32.391 28.7409 32.391 22C32.391 15.2591 26.9063 9.77329 20.1643 9.77329C13.4233 9.77329 7.93753 15.2591 7.93753 22Z" fill="black"/>
<path fill-rule="evenodd" clip-rule="evenodd" d="M26.7747 0.301929C31.9987 1.62446 35.9168 7.13573 35.9168 13.7337C35.9168 20.3317 31.9987 25.8429 26.7748 27.1655C27.7027 27.3633 28.6653 27.4674 29.6523 27.4674C37.2372 27.4674 43.386 21.3186 43.386 13.7337C43.386 6.14877 37.2372 -2.28882e-05 29.6523 -2.28882e-05C28.6653 -2.28882e-05 27.7027 0.10409 26.7747 0.301929Z" fill="#7247FF"/>
<path fill-rule="evenodd" clip-rule="evenodd" d="M26.7747 0.301929C31.9987 1.62446 35.9168 7.13573 35.9168 13.7337C35.9168 20.3317 31.9987 25.8429 26.7748 27.1655C27.7027 27.3633 28.6653 27.4674 29.6523 27.4674C37.2372 27.4674 43.386 21.3186 43.386 13.7337C43.386 6.14877 37.2372 -2.28882e-05 29.6523 -2.28882e-05C28.6653 -2.28882e-05 27.7027 0.10409 26.7747 0.301929Z" fill="url(#paint0_linear_5637_10)"/>
<path fill-rule="evenodd" clip-rule="evenodd" d="M28.0498 0.394537C32.8149 2.23923 36.2168 7.53802 36.2168 13.7337C36.2168 19.9294 32.815 25.2281 28.0499 27.0729C28.5752 27.1353 29.1099 27.1674 29.6523 27.1674C37.0715 27.1674 43.086 21.1529 43.086 13.7337C43.086 6.31446 37.0715 0.299976 29.6523 0.299976C29.1099 0.299976 28.5752 0.332102 28.0498 0.394537ZM27.4118 0.485931C27.2017 0.417671 26.9893 0.356264 26.7747 0.301929C26.9928 0.255436 27.2128 0.214117 27.4346 0.17811C28.1565 0.0609035 28.8972 -2.28882e-05 29.6523 -2.28882e-05C37.2372 -2.28882e-05 43.386 6.14877 43.386 13.7337C43.386 21.3186 37.2372 27.4674 29.6523 27.4674C28.8973 27.4674 28.1565 27.4065 27.4346 27.2893C27.2129 27.2533 26.9929 27.212 26.7748 27.1655C26.9894 27.1111 27.2018 27.0497 27.4119 26.9815C32.314 25.3882 35.9168 20.0606 35.9168 13.7337C35.9168 7.40681 32.314 2.07915 27.4118 0.485931Z" fill="black"/>
<defs>
<linearGradient id="paint0_linear_5637_10" x1="35.0803" y1="27.4674" x2="35.0803" y2="-2.28882e-05" gradientUnits="userSpaceOnUse">
<stop stop-color="#4614E8"/>
<stop offset="1" stop-color="#BCA7FF"/>
</linearGradient>
</defs>
</svg>
