<svg width="53" height="40" viewBox="0 0 53 40" fill="none" xmlns="http://www.w3.org/2000/svg">
<path d="M40.1775 20C40.1775 31.0457 31.1835 40 20.0888 40C8.99405 40 0 31.0457 0 20C0 8.9543 8.99405 0 20.0888 0C31.1835 0 40.1775 8.9543 40.1775 20Z" fill="#F4F7FA"/>
<path fill-rule="evenodd" clip-rule="evenodd" d="M20.0888 39.6C30.9642 39.6 39.7775 30.8231 39.7775 20C39.7775 9.17689 30.9642 0.4 20.0888 0.4C9.21329 0.4 0.4 9.17689 0.4 20C0.4 30.8231 9.21329 39.6 20.0888 39.6ZM20.0888 40C31.1835 40 40.1775 31.0457 40.1775 20C40.1775 8.9543 31.1835 0 20.0888 0C8.99405 0 0 8.9543 0 20C0 31.0457 8.99405 40 20.0888 40Z" fill="black"/>
<path fill-rule="evenodd" clip-rule="evenodd" d="M20.0888 36.1957C29.0758 36.1957 36.3582 28.9429 36.3582 19.9999C36.3582 11.0569 29.0758 3.80417 20.0888 3.80417C11.1018 3.80417 3.81943 11.0569 3.81943 19.9999C3.81943 28.9429 11.1018 36.1957 20.0888 36.1957ZM20.0888 36.5957C29.2951 36.5957 36.7582 29.1655 36.7582 19.9999C36.7582 10.8343 29.2951 3.40417 20.0888 3.40417C10.8826 3.40417 3.41943 10.8343 3.41943 19.9999C3.41943 29.1655 10.8826 36.5957 20.0888 36.5957Z" fill="black" fill-opacity="0.3"/>
<path d="M52.9998 20C52.9998 31.0457 44.0057 40 32.911 40C21.8163 40 12.8223 31.0457 12.8223 20C12.8223 8.9543 21.8163 0 32.911 0C44.0057 0 52.9998 8.9543 52.9998 20Z" fill="#F4F7FA"/>
<path fill-rule="evenodd" clip-rule="evenodd" d="M32.911 39.6C43.7865 39.6 52.5998 30.8231 52.5998 20C52.5998 9.17689 43.7865 0.4 32.911 0.4C22.0356 0.4 13.2223 9.17689 13.2223 20C13.2223 30.8231 22.0356 39.6 32.911 39.6ZM32.911 40C44.0057 40 52.9998 31.0457 52.9998 20C52.9998 8.9543 44.0057 0 32.911 0C21.8163 0 12.8223 8.9543 12.8223 20C12.8223 31.0457 21.8163 40 32.911 40Z" fill="black"/>
<path fill-rule="evenodd" clip-rule="evenodd" d="M33.339 36.1957C42.326 36.1957 49.6084 28.9429 49.6084 19.9999C49.6084 11.0569 42.326 3.80417 33.339 3.80417C24.3519 3.80417 17.0696 11.0569 17.0696 19.9999C17.0696 28.9429 24.3519 36.1957 33.339 36.1957ZM33.339 36.5957C42.5452 36.5957 50.0084 29.1655 50.0084 19.9999C50.0084 10.8343 42.5452 3.40417 33.339 3.40417C24.1327 3.40417 16.6696 10.8343 16.6696 19.9999C16.6696 29.1655 24.1327 36.5957 33.339 36.5957Z" fill="black"/>
<path d="M32.6485 29.4711V27.2534C30.7016 27.0045 28.9743 26.3092 27.4666 25.1674L29.1792 22.6642C30.4381 23.6157 31.6311 24.2086 32.7583 24.4428V20.9516C31.1188 20.5124 29.9185 19.9415 29.1573 19.2389C28.4107 18.5216 28.0374 17.5262 28.0374 16.2527C28.0374 15.0523 28.4546 14.0716 29.289 13.3104C30.1234 12.5492 31.2432 12.0954 32.6485 11.949V10.6755H34.9321V11.9929C36.4106 12.1979 37.7719 12.7395 39.0162 13.6178L37.545 16.1868C36.6082 15.5573 35.7006 15.1255 34.8223 14.8913V18.2069C36.5057 18.6607 37.7207 19.2608 38.4672 20.0074C39.2138 20.7393 39.5871 21.7274 39.5871 22.9716C39.5871 24.172 39.1626 25.1528 38.3135 25.9139C37.4792 26.6751 36.352 27.1362 34.9321 27.2973V29.4711H32.6485ZM32.7583 17.6579V14.6937C31.7483 14.8254 31.2432 15.2939 31.2432 16.099C31.2432 16.4503 31.3457 16.7504 31.5506 16.9992C31.7702 17.2334 32.1728 17.453 32.7583 17.6579ZM34.8223 24.5526C35.8616 24.3916 36.3813 23.9085 36.3813 23.1034C36.3813 22.7228 36.2642 22.4154 36.03 22.1812C35.8104 21.9323 35.4078 21.6981 34.8223 21.4785V24.5526Z" fill="url(#paint0_linear_0_495)"/>
<defs>
<linearGradient id="paint0_linear_0_495" x1="33.3391" y1="15.3192" x2="33.3391" y2="24.6809" gradientUnits="userSpaceOnUse">
<stop stop-color="#4614E8"/>
<stop offset="1" stop-color="#BCA7FF"/>
</linearGradient>
</defs>
</svg>
