<svg width="40" height="40" viewBox="0 0 40 40" fill="none" xmlns="http://www.w3.org/2000/svg">
<path d="M18.5786 9.21855C18.5786 14.3098 14.4196 18.4371 9.28928 18.4371C4.15895 18.4371 0 14.3098 0 9.21855C0 4.12728 4.15895 0 9.28928 0C14.4196 0 18.5786 4.12728 18.5786 9.21855Z" fill="#F1F5F8"/>
<path fill-rule="evenodd" clip-rule="evenodd" d="M9.28928 18.0371C14.2016 18.0371 18.1786 14.086 18.1786 9.21855C18.1786 4.35108 14.2016 0.4 9.28928 0.4C4.37698 0.4 0.4 4.35108 0.4 9.21855C0.4 14.086 4.37698 18.0371 9.28928 18.0371ZM9.28928 18.4371C14.4196 18.4371 18.5786 14.3098 18.5786 9.21855C18.5786 4.12728 14.4196 0 9.28928 0C4.15895 0 0 4.12728 0 9.21855C0 14.3098 4.15895 18.4371 9.28928 18.4371Z" fill="black"/>
<path d="M18.5786 30.7815C18.5786 35.8727 14.4196 40 9.28928 40C4.15895 40 0 35.8727 0 30.7815C0 25.6902 4.15895 21.5629 9.28928 21.5629C14.4196 21.5629 18.5786 25.6902 18.5786 30.7815Z" fill="#F1F5F8"/>
<path fill-rule="evenodd" clip-rule="evenodd" d="M9.28928 39.6C14.2016 39.6 18.1786 35.6489 18.1786 30.7815C18.1786 25.914 14.2016 21.9629 9.28928 21.9629C4.37698 21.9629 0.4 25.914 0.4 30.7815C0.4 35.6489 4.37698 39.6 9.28928 39.6ZM9.28928 40C14.4196 40 18.5786 35.8727 18.5786 30.7815C18.5786 25.6902 14.4196 21.5629 9.28928 21.5629C4.15895 21.5629 0 25.6902 0 30.7815C0 35.8727 4.15895 40 9.28928 40Z" fill="black"/>
<path d="M40 9.21855C40 14.3098 35.841 18.4371 30.7107 18.4371C25.5803 18.4371 21.4214 14.3098 21.4214 9.21855C21.4214 4.12728 25.5803 0 30.7107 0C35.841 0 40 4.12728 40 9.21855Z" fill="#F1F5F8"/>
<path fill-rule="evenodd" clip-rule="evenodd" d="M30.7107 18.0371C35.623 18.0371 39.6 14.086 39.6 9.21855C39.6 4.35108 35.623 0.4 30.7107 0.4C25.7984 0.4 21.8214 4.35108 21.8214 9.21855C21.8214 14.086 25.7984 18.0371 30.7107 18.0371ZM30.7107 18.4371C35.841 18.4371 40 14.3098 40 9.21855C40 4.12728 35.841 0 30.7107 0C25.5803 0 21.4214 4.12728 21.4214 9.21855C21.4214 14.3098 25.5803 18.4371 30.7107 18.4371Z" fill="black"/>
<path d="M40 30.7815C40 35.8728 35.841 40.0001 30.7107 40.0001C25.5803 40.0001 21.4214 35.8728 21.4214 30.7815C21.4214 25.6903 25.5803 21.563 30.7107 21.563C35.841 21.563 40 25.6903 40 30.7815Z" fill="url(#paint0_linear_0_501)"/>
<path fill-rule="evenodd" clip-rule="evenodd" d="M9.26587 2.63782C9.26586 2.63782 9.26585 2.63782 9.26584 2.63782C5.63364 2.63782 2.66956 5.56291 2.66956 9.19529C2.66956 12.8277 5.63364 15.7528 9.26584 15.7528C9.26585 15.7528 9.26586 15.7528 9.26587 15.7528V12.7528C9.26586 12.7528 9.26585 12.7528 9.26584 12.7528C7.26884 12.7528 5.66956 11.1492 5.66956 9.19529C5.66956 7.24134 7.26884 5.63782 9.26584 5.63782C9.26585 5.63782 9.26586 5.63782 9.26587 5.63782V2.63782Z" fill="#F1F5F8"/>
<path fill-rule="evenodd" clip-rule="evenodd" d="M9.06586 2.84086C5.63448 2.94578 2.86954 5.74173 2.86954 9.19528C2.86954 12.6488 5.63448 15.4448 9.06586 15.5497V12.9476C7.05367 12.8446 5.46954 11.1951 5.46954 9.19528C5.46954 7.19542 7.05367 5.54597 9.06586 5.44291V2.84086ZM2.46954 9.19528C2.46954 5.4509 5.52472 2.43781 9.26582 2.43781H9.46586V5.83781H9.26585C7.37805 5.83781 5.86954 7.35304 5.86954 9.19528C5.86954 11.0375 7.37802 12.5528 9.26582 12.5528H9.46586V15.9528H9.26585C5.52475 15.9528 2.46954 12.9397 2.46954 9.19528Z" fill="black"/>
<path fill-rule="evenodd" clip-rule="evenodd" d="M30.3461 2.63782C30.3461 2.63782 30.346 2.63782 30.346 2.63782C26.7138 2.63782 23.7498 5.56291 23.7498 9.19529C23.7498 12.8277 26.7138 15.7528 30.346 15.7528C30.346 15.7528 30.3461 15.7528 30.3461 15.7528V12.7528C30.3461 12.7528 30.346 12.7528 30.346 12.7528C28.349 12.7528 26.7498 11.1492 26.7498 9.19529C26.7498 7.24134 28.349 5.63782 30.346 5.63782C30.346 5.63782 30.3461 5.63782 30.3461 5.63782V2.63782Z" fill="#F1F5F8"/>
<path fill-rule="evenodd" clip-rule="evenodd" d="M30.1461 2.84086C26.7147 2.94578 23.9497 5.74173 23.9497 9.19528C23.9497 12.6488 26.7147 15.4448 30.1461 15.5497V12.9476C28.1339 12.8446 26.5497 11.1951 26.5497 9.19528C26.5497 7.19542 28.1339 5.54597 30.1461 5.44291V2.84086ZM23.5497 9.19528C23.5497 5.4509 26.6049 2.43781 30.346 2.43781H30.5461V5.83781H30.3461C28.4582 5.83781 26.9497 7.35304 26.9497 9.19528C26.9497 11.0375 28.4582 12.5528 30.346 12.5528H30.5461V15.9528H30.3461C26.6049 15.9528 23.5497 12.9397 23.5497 9.19528Z" fill="black"/>
<path fill-rule="evenodd" clip-rule="evenodd" d="M9.26587 24.0173C9.26586 24.0173 9.26585 24.0173 9.26584 24.0173C5.63364 24.0173 2.66956 26.9424 2.66956 30.5748C2.66956 34.2072 5.63364 37.1323 9.26584 37.1323C9.26585 37.1323 9.26586 37.1323 9.26587 37.1323V34.1323C9.26586 34.1323 9.26585 34.1323 9.26584 34.1323C7.26884 34.1323 5.66956 32.5288 5.66956 30.5748C5.66956 28.6209 7.26884 27.0173 9.26584 27.0173C9.26585 27.0173 9.26586 27.0173 9.26587 27.0173V24.0173Z" fill="#F1F5F8"/>
<path fill-rule="evenodd" clip-rule="evenodd" d="M9.06586 24.2204C5.63448 24.3253 2.86954 27.1212 2.86954 30.5748C2.86954 34.0283 5.63448 36.8243 9.06586 36.9292V34.3272C7.05367 34.2241 5.46954 32.5747 5.46954 30.5748C5.46954 28.5749 7.05367 26.9255 9.06586 26.8224V24.2204ZM2.46954 30.5748C2.46954 26.8304 5.52472 23.8173 9.26582 23.8173H9.46586V27.2173H9.26585C7.37805 27.2173 5.86954 28.7326 5.86954 30.5748C5.86954 32.417 7.37802 33.9323 9.26582 33.9323H9.46586V37.3323H9.26585C5.52475 37.3323 2.46954 34.3192 2.46954 30.5748Z" fill="black"/>
<defs>
<linearGradient id="paint0_linear_0_501" x1="30.7107" y1="21.563" x2="30.7107" y2="40.0001" gradientUnits="userSpaceOnUse">
<stop stop-color="#4614E8"/>
<stop offset="1" stop-color="#BCA7FF"/>
</linearGradient>
</defs>
</svg>
