<svg width="528" height="271" viewBox="0 0 528 271" fill="none" xmlns="http://www.w3.org/2000/svg">
<path d="M528 79.5C528 123.407 492.407 159 448.5 159C404.593 159 369 123.407 369 79.5C369 35.5934 404.593 0 448.5 0C492.407 0 528 35.5934 528 79.5Z" fill="url(#paint0_linear_5642_34)"/>
<path d="M39 223.5C39 234.27 30.2696 243 19.5 243C8.73045 243 0 234.27 0 223.5C0 212.73 8.73045 204 19.5 204C30.2696 204 39 212.73 39 223.5Z" fill="url(#paint1_linear_5642_34)"/>
<path d="M235 258.5C235 265.404 229.404 271 222.5 271C215.596 271 210 265.404 210 258.5C210 251.596 215.596 246 222.5 246C229.404 246 235 251.596 235 258.5Z" fill="url(#paint2_linear_5642_34)"/>
<defs>
<linearGradient id="paint0_linear_5642_34" x1="403.294" y1="0" x2="528" y2="0" gradientUnits="userSpaceOnUse">
<stop stop-color="#E1D8FF"/>
<stop offset="1" stop-color="#F4ECFF"/>
</linearGradient>
<linearGradient id="paint1_linear_5642_34" x1="8.41176" y1="204" x2="39" y2="204" gradientUnits="userSpaceOnUse">
<stop stop-color="#E1D8FF"/>
<stop offset="1" stop-color="#F4ECFF"/>
</linearGradient>
<linearGradient id="paint2_linear_5642_34" x1="215.392" y1="246" x2="235" y2="246" gradientUnits="userSpaceOnUse">
<stop stop-color="#E1D8FF"/>
<stop offset="1" stop-color="#F4ECFF"/>
</linearGradient>
</defs>
</svg>
