<svg width="13" height="20" viewBox="0 0 13 20" fill="none" xmlns="http://www.w3.org/2000/svg">
<path fill-rule="evenodd" clip-rule="evenodd" d="M0.181152 2.66665C0.181152 1.27444 1.30977 0.145821 2.70199 0.145821H10.0353C11.4276 0.145821 12.5562 1.27444 12.5562 2.66665V17.3333C12.5562 18.7256 11.4276 19.8542 10.0353 19.8542H2.70199C1.30977 19.8542 0.181152 18.7256 0.181152 17.3333V2.66665ZM2.70199 1.52082C2.06916 1.52082 1.55615 2.03382 1.55615 2.66665V17.3333C1.55615 17.9662 2.06916 18.4792 2.70199 18.4792H10.0353C10.6682 18.4792 11.1812 17.9662 11.1812 17.3333V2.66665C11.1812 2.03382 10.6682 1.52082 10.0353 1.52082H2.70199Z" fill="white"/>
<path fill-rule="evenodd" clip-rule="evenodd" d="M3.61865 0.145821C3.23896 0.145821 2.93115 0.453628 2.93115 0.833321V1.74999C2.93115 2.63595 3.64936 3.35415 4.53532 3.35415H8.20199C9.08794 3.35415 9.80615 2.63595 9.80615 1.74999V0.833321C9.80615 0.453628 9.49834 0.145821 9.11865 0.145821H3.61865Z" fill="white"/>
</svg>
