<svg width="80" height="13" viewBox="0 0 80 13" fill="none" xmlns="http://www.w3.org/2000/svg">
<path d="M10.9813 3.95312C10.6427 3.81771 10.2625 3.69792 9.84064 3.59375C9.48126 3.50521 9.05418 3.42448 8.55939 3.35156C8.0646 3.27344 7.51772 3.23438 6.91876 3.23438C6.16355 3.23438 5.57762 3.29427 5.16095 3.41406C4.74949 3.52865 4.54376 3.73438 4.54376 4.03125C4.54376 4.18229 4.59064 4.3099 4.68439 4.41406C4.77814 4.51302 4.92918 4.59896 5.13751 4.67188C5.35105 4.73958 5.6271 4.80208 5.96564 4.85938C6.30418 4.91146 6.71564 4.96354 7.20001 5.01562C8.26251 5.13542 9.16616 5.28906 9.91095 5.47656C10.6557 5.65885 11.2599 5.89323 11.7234 6.17969C12.187 6.46094 12.5229 6.80469 12.7313 7.21094C12.9448 7.61198 13.0516 8.08854 13.0516 8.64062C13.0516 9.3125 12.8927 9.88281 12.575 10.3516C12.2625 10.8151 11.825 11.1927 11.2625 11.4844C10.7 11.776 10.0281 11.987 9.24689 12.1172C8.47085 12.2474 7.61668 12.3125 6.68439 12.3125C6.17397 12.3125 5.69741 12.2943 5.2547 12.2578C4.8172 12.2214 4.41355 12.1719 4.04376 12.1094C3.67918 12.0521 3.34585 11.9844 3.04376 11.9062C2.74168 11.8281 2.47345 11.7474 2.23907 11.6641C1.68699 11.4714 1.22605 11.2526 0.856262 11.0078L2.40314 8.75C2.73126 8.90104 3.10887 9.03646 3.53595 9.15625C3.89532 9.26042 4.32762 9.35417 4.83282 9.4375C5.34324 9.52083 5.90835 9.5625 6.52814 9.5625C7.03855 9.5625 7.49168 9.54948 7.88751 9.52344C8.28335 9.49219 8.61668 9.44271 8.88751 9.375C9.15835 9.30208 9.36407 9.20833 9.5047 9.09375C9.64532 8.97396 9.71564 8.82292 9.71564 8.64062C9.71564 8.5 9.67137 8.38542 9.58282 8.29688C9.49949 8.20833 9.34064 8.13281 9.10626 8.07031C8.8771 8.0026 8.55678 7.94271 8.14532 7.89062C7.73907 7.83333 7.21043 7.76823 6.55939 7.69531C5.47605 7.58073 4.58803 7.41146 3.89532 7.1875C3.20262 6.95833 2.65574 6.6875 2.2547 6.375C1.85887 6.05729 1.58543 5.70052 1.43439 5.30469C1.28335 4.90885 1.20782 4.48438 1.20782 4.03125C1.20782 3.54167 1.30939 3.08333 1.51251 2.65625C1.71564 2.22396 2.03855 1.84896 2.48126 1.53125C2.92397 1.20833 3.49689 0.953125 4.20001 0.765625C4.90835 0.578125 5.76251 0.484375 6.76251 0.484375C7.73126 0.484375 8.57501 0.549479 9.29376 0.679688C10.0177 0.804688 10.6193 0.942708 11.0984 1.09375C11.6557 1.27083 12.1323 1.47135 12.5281 1.69531L10.9813 3.95312Z" fill="#7247FF"/>
<path d="M10.9813 3.95312C10.6427 3.81771 10.2625 3.69792 9.84064 3.59375C9.48126 3.50521 9.05418 3.42448 8.55939 3.35156C8.0646 3.27344 7.51772 3.23438 6.91876 3.23438C6.16355 3.23438 5.57762 3.29427 5.16095 3.41406C4.74949 3.52865 4.54376 3.73438 4.54376 4.03125C4.54376 4.18229 4.59064 4.3099 4.68439 4.41406C4.77814 4.51302 4.92918 4.59896 5.13751 4.67188C5.35105 4.73958 5.6271 4.80208 5.96564 4.85938C6.30418 4.91146 6.71564 4.96354 7.20001 5.01562C8.26251 5.13542 9.16616 5.28906 9.91095 5.47656C10.6557 5.65885 11.2599 5.89323 11.7234 6.17969C12.187 6.46094 12.5229 6.80469 12.7313 7.21094C12.9448 7.61198 13.0516 8.08854 13.0516 8.64062C13.0516 9.3125 12.8927 9.88281 12.575 10.3516C12.2625 10.8151 11.825 11.1927 11.2625 11.4844C10.7 11.776 10.0281 11.987 9.24689 12.1172C8.47085 12.2474 7.61668 12.3125 6.68439 12.3125C6.17397 12.3125 5.69741 12.2943 5.2547 12.2578C4.8172 12.2214 4.41355 12.1719 4.04376 12.1094C3.67918 12.0521 3.34585 11.9844 3.04376 11.9062C2.74168 11.8281 2.47345 11.7474 2.23907 11.6641C1.68699 11.4714 1.22605 11.2526 0.856262 11.0078L2.40314 8.75C2.73126 8.90104 3.10887 9.03646 3.53595 9.15625C3.89532 9.26042 4.32762 9.35417 4.83282 9.4375C5.34324 9.52083 5.90835 9.5625 6.52814 9.5625C7.03855 9.5625 7.49168 9.54948 7.88751 9.52344C8.28335 9.49219 8.61668 9.44271 8.88751 9.375C9.15835 9.30208 9.36407 9.20833 9.5047 9.09375C9.64532 8.97396 9.71564 8.82292 9.71564 8.64062C9.71564 8.5 9.67137 8.38542 9.58282 8.29688C9.49949 8.20833 9.34064 8.13281 9.10626 8.07031C8.8771 8.0026 8.55678 7.94271 8.14532 7.89062C7.73907 7.83333 7.21043 7.76823 6.55939 7.69531C5.47605 7.58073 4.58803 7.41146 3.89532 7.1875C3.20262 6.95833 2.65574 6.6875 2.2547 6.375C1.85887 6.05729 1.58543 5.70052 1.43439 5.30469C1.28335 4.90885 1.20782 4.48438 1.20782 4.03125C1.20782 3.54167 1.30939 3.08333 1.51251 2.65625C1.71564 2.22396 2.03855 1.84896 2.48126 1.53125C2.92397 1.20833 3.49689 0.953125 4.20001 0.765625C4.90835 0.578125 5.76251 0.484375 6.76251 0.484375C7.73126 0.484375 8.57501 0.549479 9.29376 0.679688C10.0177 0.804688 10.6193 0.942708 11.0984 1.09375C11.6557 1.27083 12.1323 1.47135 12.5281 1.69531L10.9813 3.95312Z" fill="url(#paint0_linear_5648_2)"/>
<path d="M17.2638 0.796875H20.5685V12H17.2638V0.796875Z" fill="#7247FF"/>
<path d="M17.2638 0.796875H20.5685V12H17.2638V0.796875Z" fill="url(#paint1_linear_5648_2)"/>
<path d="M25.2494 12V0.796875H32.6166C33.3405 0.796875 34.0124 0.869792 34.6322 1.01562C35.252 1.15625 35.7858 1.38542 36.2338 1.70312C36.6869 2.02083 37.0411 2.4349 37.2963 2.94531C37.5515 3.45052 37.6791 4.0651 37.6791 4.78906C37.6791 5.2474 37.6062 5.65104 37.4603 6C37.3197 6.34375 37.14 6.64323 36.9213 6.89844C36.7025 7.14844 36.4603 7.35417 36.1947 7.51562C35.9343 7.67708 35.6869 7.79948 35.4525 7.88281L37.7806 12H34.2338L32.2728 8.53906H28.5541V12H25.2494ZM28.5541 3.55469V6.02344H32.6166C33.2155 6.02344 33.653 5.92969 33.9291 5.74219C34.2051 5.54948 34.3431 5.23177 34.3431 4.78906C34.3431 4.35156 34.2051 4.03646 33.9291 3.84375C33.653 3.65104 33.2155 3.55469 32.6166 3.55469H28.5541Z" fill="#7247FF"/>
<path d="M25.2494 12V0.796875H32.6166C33.3405 0.796875 34.0124 0.869792 34.6322 1.01562C35.252 1.15625 35.7858 1.38542 36.2338 1.70312C36.6869 2.02083 37.0411 2.4349 37.2963 2.94531C37.5515 3.45052 37.6791 4.0651 37.6791 4.78906C37.6791 5.2474 37.6062 5.65104 37.4603 6C37.3197 6.34375 37.14 6.64323 36.9213 6.89844C36.7025 7.14844 36.4603 7.35417 36.1947 7.51562C35.9343 7.67708 35.6869 7.79948 35.4525 7.88281L37.7806 12H34.2338L32.2728 8.53906H28.5541V12H25.2494ZM28.5541 3.55469V6.02344H32.6166C33.2155 6.02344 33.653 5.92969 33.9291 5.74219C34.2051 5.54948 34.3431 5.23177 34.3431 4.78906C34.3431 4.35156 34.2051 4.03646 33.9291 3.84375C33.653 3.65104 33.2155 3.55469 32.6166 3.55469H28.5541Z" fill="url(#paint2_linear_5648_2)"/>
<path d="M42.1413 0.796875H45.4459V12H42.1413V0.796875Z" fill="#7247FF"/>
<path d="M42.1413 0.796875H45.4459V12H42.1413V0.796875Z" fill="url(#paint3_linear_5648_2)"/>
<path d="M56.4316 9.5625C57.0201 9.5625 57.5123 9.5 57.9081 9.375C58.304 9.25 58.6191 9.07031 58.8535 8.83594C59.093 8.60156 59.2623 8.3151 59.3613 7.97656C59.4602 7.63802 59.5097 7.25781 59.5097 6.83594V0.796875H62.8144V6.83594C62.8144 7.70573 62.6946 8.48177 62.455 9.16406C62.2206 9.84115 61.8456 10.4141 61.33 10.8828C60.8196 11.3464 60.1607 11.7005 59.3535 11.9453C58.5462 12.1901 57.5722 12.3125 56.4316 12.3125C55.3118 12.3125 54.3535 12.1901 53.5566 11.9453C52.7597 11.7005 52.1061 11.3464 51.5956 10.8828C51.0904 10.4141 50.718 9.84115 50.4785 9.16406C50.2441 8.48177 50.1269 7.70573 50.1269 6.83594V0.796875H53.4316V6.83594C53.4316 7.25781 53.4758 7.63802 53.5644 7.97656C53.6581 8.3151 53.817 8.60156 54.041 8.83594C54.2701 9.07031 54.5774 9.25 54.9628 9.375C55.3535 9.5 55.843 9.5625 56.4316 9.5625Z" fill="#7247FF"/>
<path d="M56.4316 9.5625C57.0201 9.5625 57.5123 9.5 57.9081 9.375C58.304 9.25 58.6191 9.07031 58.8535 8.83594C59.093 8.60156 59.2623 8.3151 59.3613 7.97656C59.4602 7.63802 59.5097 7.25781 59.5097 6.83594V0.796875H62.8144V6.83594C62.8144 7.70573 62.6946 8.48177 62.455 9.16406C62.2206 9.84115 61.8456 10.4141 61.33 10.8828C60.8196 11.3464 60.1607 11.7005 59.3535 11.9453C58.5462 12.1901 57.5722 12.3125 56.4316 12.3125C55.3118 12.3125 54.3535 12.1901 53.5566 11.9453C52.7597 11.7005 52.1061 11.3464 51.5956 10.8828C51.0904 10.4141 50.718 9.84115 50.4785 9.16406C50.2441 8.48177 50.1269 7.70573 50.1269 6.83594V0.796875H53.4316V6.83594C53.4316 7.25781 53.4758 7.63802 53.5644 7.97656C53.6581 8.3151 53.817 8.60156 54.041 8.83594C54.2701 9.07031 54.5774 9.25 54.9628 9.375C55.3535 9.5 55.843 9.5625 56.4316 9.5625Z" fill="url(#paint4_linear_5648_2)"/>
<path d="M77.0656 3.95312C76.7271 3.81771 76.3469 3.69792 75.925 3.59375C75.5656 3.50521 75.1386 3.42448 74.6438 3.35156C74.149 3.27344 73.6021 3.23438 73.0031 3.23438C72.2479 3.23438 71.662 3.29427 71.2453 3.41406C70.8339 3.52865 70.6281 3.73438 70.6281 4.03125C70.6281 4.18229 70.675 4.3099 70.7688 4.41406C70.8625 4.51302 71.0136 4.59896 71.2219 4.67188C71.4354 4.73958 71.7115 4.80208 72.05 4.85938C72.3886 4.91146 72.8 4.96354 73.2844 5.01562C74.3469 5.13542 75.2505 5.28906 75.9953 5.47656C76.7401 5.65885 77.3443 5.89323 77.8078 6.17969C78.2714 6.46094 78.6073 6.80469 78.8156 7.21094C79.0292 7.61198 79.136 8.08854 79.136 8.64062C79.136 9.3125 78.9771 9.88281 78.6594 10.3516C78.3469 10.8151 77.9094 11.1927 77.3469 11.4844C76.7844 11.776 76.1125 11.987 75.3313 12.1172C74.5552 12.2474 73.7011 12.3125 72.7688 12.3125C72.2584 12.3125 71.7818 12.2943 71.3391 12.2578C70.9016 12.2214 70.4979 12.1719 70.1281 12.1094C69.7636 12.0521 69.4302 11.9844 69.1281 11.9062C68.8261 11.8281 68.5578 11.7474 68.3235 11.6641C67.7714 11.4714 67.3104 11.2526 66.9406 11.0078L68.4875 8.75C68.8156 8.90104 69.1932 9.03646 69.6203 9.15625C69.9797 9.26042 70.412 9.35417 70.9172 9.4375C71.4276 9.52083 71.9927 9.5625 72.6125 9.5625C73.1229 9.5625 73.5761 9.54948 73.9719 9.52344C74.3677 9.49219 74.7011 9.44271 74.9719 9.375C75.2427 9.30208 75.4485 9.20833 75.5891 9.09375C75.7297 8.97396 75.8 8.82292 75.8 8.64062C75.8 8.5 75.7557 8.38542 75.6672 8.29688C75.5839 8.20833 75.425 8.13281 75.1906 8.07031C74.9615 8.0026 74.6412 7.94271 74.2297 7.89062C73.8235 7.83333 73.2948 7.76823 72.6438 7.69531C71.5604 7.58073 70.6724 7.41146 69.9797 7.1875C69.287 6.95833 68.7401 6.6875 68.3391 6.375C67.9432 6.05729 67.6698 5.70052 67.5188 5.30469C67.3677 4.90885 67.2922 4.48438 67.2922 4.03125C67.2922 3.54167 67.3938 3.08333 67.5969 2.65625C67.8 2.22396 68.1229 1.84896 68.5656 1.53125C69.0084 1.20833 69.5813 0.953125 70.2844 0.765625C70.9927 0.578125 71.8469 0.484375 72.8469 0.484375C73.8156 0.484375 74.6594 0.549479 75.3781 0.679688C76.1021 0.804688 76.7037 0.942708 77.1828 1.09375C77.7401 1.27083 78.2167 1.47135 78.6125 1.69531L77.0656 3.95312Z" fill="#7247FF"/>
<path d="M77.0656 3.95312C76.7271 3.81771 76.3469 3.69792 75.925 3.59375C75.5656 3.50521 75.1386 3.42448 74.6438 3.35156C74.149 3.27344 73.6021 3.23438 73.0031 3.23438C72.2479 3.23438 71.662 3.29427 71.2453 3.41406C70.8339 3.52865 70.6281 3.73438 70.6281 4.03125C70.6281 4.18229 70.675 4.3099 70.7688 4.41406C70.8625 4.51302 71.0136 4.59896 71.2219 4.67188C71.4354 4.73958 71.7115 4.80208 72.05 4.85938C72.3886 4.91146 72.8 4.96354 73.2844 5.01562C74.3469 5.13542 75.2505 5.28906 75.9953 5.47656C76.7401 5.65885 77.3443 5.89323 77.8078 6.17969C78.2714 6.46094 78.6073 6.80469 78.8156 7.21094C79.0292 7.61198 79.136 8.08854 79.136 8.64062C79.136 9.3125 78.9771 9.88281 78.6594 10.3516C78.3469 10.8151 77.9094 11.1927 77.3469 11.4844C76.7844 11.776 76.1125 11.987 75.3313 12.1172C74.5552 12.2474 73.7011 12.3125 72.7688 12.3125C72.2584 12.3125 71.7818 12.2943 71.3391 12.2578C70.9016 12.2214 70.4979 12.1719 70.1281 12.1094C69.7636 12.0521 69.4302 11.9844 69.1281 11.9062C68.8261 11.8281 68.5578 11.7474 68.3235 11.6641C67.7714 11.4714 67.3104 11.2526 66.9406 11.0078L68.4875 8.75C68.8156 8.90104 69.1932 9.03646 69.6203 9.15625C69.9797 9.26042 70.412 9.35417 70.9172 9.4375C71.4276 9.52083 71.9927 9.5625 72.6125 9.5625C73.1229 9.5625 73.5761 9.54948 73.9719 9.52344C74.3677 9.49219 74.7011 9.44271 74.9719 9.375C75.2427 9.30208 75.4485 9.20833 75.5891 9.09375C75.7297 8.97396 75.8 8.82292 75.8 8.64062C75.8 8.5 75.7557 8.38542 75.6672 8.29688C75.5839 8.20833 75.425 8.13281 75.1906 8.07031C74.9615 8.0026 74.6412 7.94271 74.2297 7.89062C73.8235 7.83333 73.2948 7.76823 72.6438 7.69531C71.5604 7.58073 70.6724 7.41146 69.9797 7.1875C69.287 6.95833 68.7401 6.6875 68.3391 6.375C67.9432 6.05729 67.6698 5.70052 67.5188 5.30469C67.3677 4.90885 67.2922 4.48438 67.2922 4.03125C67.2922 3.54167 67.3938 3.08333 67.5969 2.65625C67.8 2.22396 68.1229 1.84896 68.5656 1.53125C69.0084 1.20833 69.5813 0.953125 70.2844 0.765625C70.9927 0.578125 71.8469 0.484375 72.8469 0.484375C73.8156 0.484375 74.6594 0.549479 75.3781 0.679688C76.1021 0.804688 76.7037 0.942708 77.1828 1.09375C77.7401 1.27083 78.2167 1.47135 78.6125 1.69531L77.0656 3.95312Z" fill="url(#paint5_linear_5648_2)"/>
<defs>
<linearGradient id="paint0_linear_5648_2" x1="40" y1="-14" x2="40" y2="25" gradientUnits="userSpaceOnUse">
<stop stop-color="#4614E8"/>
<stop offset="1" stop-color="#BCA7FF"/>
</linearGradient>
<linearGradient id="paint1_linear_5648_2" x1="40" y1="-14" x2="40" y2="25" gradientUnits="userSpaceOnUse">
<stop stop-color="#4614E8"/>
<stop offset="1" stop-color="#BCA7FF"/>
</linearGradient>
<linearGradient id="paint2_linear_5648_2" x1="40" y1="-14" x2="40" y2="25" gradientUnits="userSpaceOnUse">
<stop stop-color="#4614E8"/>
<stop offset="1" stop-color="#BCA7FF"/>
</linearGradient>
<linearGradient id="paint3_linear_5648_2" x1="40" y1="-14" x2="40" y2="25" gradientUnits="userSpaceOnUse">
<stop stop-color="#4614E8"/>
<stop offset="1" stop-color="#BCA7FF"/>
</linearGradient>
<linearGradient id="paint4_linear_5648_2" x1="40" y1="-14" x2="40" y2="25" gradientUnits="userSpaceOnUse">
<stop stop-color="#4614E8"/>
<stop offset="1" stop-color="#BCA7FF"/>
</linearGradient>
<linearGradient id="paint5_linear_5648_2" x1="40" y1="-14" x2="40" y2="25" gradientUnits="userSpaceOnUse">
<stop stop-color="#4614E8"/>
<stop offset="1" stop-color="#BCA7FF"/>
</linearGradient>
</defs>
</svg>
